{
  "title": "Trance.2013 WEBRip XViD juggs",
  "uid": 8637254,
  "size": 743860935,
  "categoryP": "video",
  "categoryS": "movies",
  "magnet": "?xt=urn:btih:75ba6b61016eba2e22ba5edf831277ab8a2d749e&amp;dn=Trance.2013+WEBRip+XViD+juggs&amp;tr=udp%3A%2F%2Ftracker.openbittorrent.com%3A80&amp;tr=udp%3A%2F%2Fopen.demonii.com%3A1337&amp;tr=udp%3A%2F%2Ftracker.coppersurfer.tk%3A6969&amp;tr=udp%3A%2F%2Fexodus.desync.com%3A6969",
  "seeders": 40,
  "leechers": 7,
  "uploader": "juggs99",
  "files": 3,
  "time": 1372790172,
  "description": "Source : PHD(Thanks)\n &lt;a href=&quot;\nhttp://www.imdb.com/title/tt1924429/&quot; rel=&quot;nofollow&quot; target=&quot;_NEW&quot;&gt;\nhttp://www.imdb.com/title/tt1924429/&lt;/a&gt;\n\nFormat                                   : AVI\nFormat/Info                              : Audio Video Interleave\nFile size                                : 697 MiB\nDuration                                 : 1h 41mn\nOverall bit rate                         : 957 Kbps\nWriting library                          : VirtualDub build 32842/release\n\nVideo\nID                                       : 0\nFormat                                   : MPEG-4 Visual\nFormat profile                           : Advanced Simple@L5\nFormat settings, BVOP                    : 2\nFormat settings, QPel                    : No\nFormat settings, GMC                     : No warppoints\nFormat settings, Matrix                  : Default (H.263)\nMuxing mode                              : Packed bitstream\nCodec ID                                 : XVID\nCodec ID/Hint                            : XviD\nDuration                                 : 1h 41mn\nBit rate                                 : 820 Kbps\nWidth                                    : 640 pixels\nHeight                                   : 272 pixels\nDisplay aspect ratio                     : 2.35:1\nFrame rate                               : 23.976 fps\nColor space                              : YUV\nChroma subsampling                       : 4:2:0\nBit depth                                : 8 bits\nScan type                                : Progressive\nCompression mode                         : Lossy\nBits/(Pixel*Frame)                       : 0.197\nStream size                              : 597 MiB (86%)\nWriting library                          : XviD 64\n\nAudio\nID                                       : 1\nFormat                                   : MPEG Audio\nFormat version                           : Version 1\nFormat profile                           : Layer 3\nMode                                     : Joint stereo\nMode extension                           : MS Stereo\nCodec ID                                 : 55\nCodec ID/Hint                            : MP3\nDuration                                 : 1h 41mn\nBit rate mode                            : Constant\nBit rate                                 : 128 Kbps\nChannel(s)                               : 2 channels\nSampling rate                            : 44.1 KHz\nCompression mode                         : Lossy\nStream size                              : 92.8 MiB (13%)\nAlignment                                : Split accross interleaves\nInterleave, duration                     : 42 ms (1.00 video frame)\nInterleave, preload duration             : 500 ms\nWriting library                          : LAME3.98\n\n &lt;a href=&quot;\nhttp://img27.imageshack.us/img27/2679/4tr.png&quot; rel=&quot;nofollow&quot; target=&quot;_NEW&quot;&gt;\nhttp://img27.imageshack.us/img27/2679/4tr.png&lt;/a&gt; &lt;a href=&quot;\nhttp://img827.imageshack.us/img827/192/went.png&quot; rel=&quot;nofollow&quot; target=&quot;_NEW&quot;&gt;\nhttp://img827.imageshack.us/img827/192/went.png&lt;/a&gt; &lt;a href=&quot;\nhttp://img818.imageshack.us/img818/1082/6k4.png&quot; rel=&quot;nofollow&quot; target=&quot;_NEW&quot;&gt;\nhttp://img818.imageshack.us/img818/1082/6k4.png&lt;/a&gt;",
  "parsed": {
    "xt": "urn:btih:75ba6b61016eba2e22ba5edf831277ab8a2d749e",
    "dn": "Trance.2013 WEBRip XViD juggs",
    "tr": [
      "udp://exodus.desync.com:6969",
      "udp://open.demonii.com:1337",
      "udp://tracker.coppersurfer.tk:6969",
      "udp://tracker.openbittorrent.com:80"
    ],
    "infoHash": "75ba6b61016eba2e22ba5edf831277ab8a2d749e",
    "infoHashBuffer": {
      "type": "Buffer",
      "data": [
        117,
        186,
        107,
        97,
        1,
        110,
        186,
        46,
        34,
        186,
        94,
        223,
        131,
        18,
        119,
        171,
        138,
        45,
        116,
        158
      ]
    },
    "name": "Trance.2013 WEBRip XViD juggs",
    "announce": [
      "udp://exodus.desync.com:6969",
      "udp://open.demonii.com:1337",
      "udp://tracker.coppersurfer.tk:6969",
      "udp://tracker.openbittorrent.com:80"
    ],
    "urlList": []
  },
  "previous": 47,
  "peers": 13,
  "last_updated": "2016-12-25T04:58:07.480Z"
}